<mxfile host="app.diagrams.net" modified="2021-04-14T02:04:33.866Z" agent="5.0 (Windows NT 10.0; Win64; x64) AppleWebKit/537.36 (KHTML, like Gecko) Chrome/89.0.4389.114 Safari/537.36" etag="ee--M4kaP1Au8C1SX9H1" version="14.6.0" type="github">
  <diagram id="HcX3JBt7VnqyWzgTQpYt" name="Page-1">
    <mxGraphModel dx="1038" dy="588" grid="1" gridSize="10" guides="1" tooltips="1" connect="1" arrows="1" fold="1" page="1" pageScale="1" pageWidth="827" pageHeight="1169" math="0" shadow="0">
      <root>
        <mxCell id="0" />
        <mxCell id="1" parent="0" />
        <mxCell id="yXOkGURGvn4hklytI6ma-5" value="" style="group" vertex="1" connectable="0" parent="1">
          <mxGeometry x="230" y="80" width="240" height="120" as="geometry" />
        </mxCell>
        <mxCell id="yXOkGURGvn4hklytI6ma-2" value="" style="rounded=0;whiteSpace=wrap;html=1;fillColor=#fff2cc;strokeColor=#d6b656;" vertex="1" parent="yXOkGURGvn4hklytI6ma-5">
          <mxGeometry width="240" height="120" as="geometry" />
        </mxCell>
        <mxCell id="yXOkGURGvn4hklytI6ma-4" value="Модель" style="text;html=1;align=center;verticalAlign=middle;resizable=0;points=[];autosize=1;strokeColor=none;fontSize=14;fontStyle=1" vertex="1" parent="yXOkGURGvn4hklytI6ma-5">
          <mxGeometry width="70" height="20" as="geometry" />
        </mxCell>
        <mxCell id="yXOkGURGvn4hklytI6ma-30" value="Table" style="text;html=1;strokeColor=none;fillColor=none;align=left;verticalAlign=middle;whiteSpace=wrap;rounded=0;fontSize=14;" vertex="1" parent="yXOkGURGvn4hklytI6ma-5">
          <mxGeometry x="10" y="30" width="130" height="20" as="geometry" />
        </mxCell>
        <mxCell id="yXOkGURGvn4hklytI6ma-31" value="TableEdit" style="text;html=1;strokeColor=none;fillColor=none;align=left;verticalAlign=middle;whiteSpace=wrap;rounded=0;fontSize=14;" vertex="1" parent="yXOkGURGvn4hklytI6ma-5">
          <mxGeometry x="10" y="50" width="130" height="20" as="geometry" />
        </mxCell>
        <mxCell id="yXOkGURGvn4hklytI6ma-32" value="Admin" style="text;html=1;strokeColor=none;fillColor=none;align=left;verticalAlign=middle;whiteSpace=wrap;rounded=0;fontSize=14;" vertex="1" parent="yXOkGURGvn4hklytI6ma-5">
          <mxGeometry x="10" y="70" width="130" height="20" as="geometry" />
        </mxCell>
        <mxCell id="yXOkGURGvn4hklytI6ma-19" value="" style="group" vertex="1" connectable="0" parent="1">
          <mxGeometry x="440" y="280" width="270" height="130" as="geometry" />
        </mxCell>
        <mxCell id="yXOkGURGvn4hklytI6ma-16" value="" style="rounded=0;whiteSpace=wrap;html=1;fontSize=14;fillColor=#fad7ac;strokeColor=#b46504;" vertex="1" parent="yXOkGURGvn4hklytI6ma-19">
          <mxGeometry width="270" height="130" as="geometry" />
        </mxCell>
        <mxCell id="yXOkGURGvn4hklytI6ma-17" value="Представление" style="text;html=1;align=center;verticalAlign=middle;resizable=0;points=[];autosize=1;strokeColor=none;fontSize=14;fontStyle=1" vertex="1" parent="yXOkGURGvn4hklytI6ma-19">
          <mxGeometry width="120" height="20" as="geometry" />
        </mxCell>
        <mxCell id="yXOkGURGvn4hklytI6ma-33" value="Index" style="text;html=1;strokeColor=none;fillColor=none;align=left;verticalAlign=middle;whiteSpace=wrap;rounded=0;fontSize=14;" vertex="1" parent="yXOkGURGvn4hklytI6ma-19">
          <mxGeometry x="10" y="30" width="130" height="20" as="geometry" />
        </mxCell>
        <mxCell id="yXOkGURGvn4hklytI6ma-34" value="" style="group" vertex="1" connectable="0" parent="1">
          <mxGeometry x="10" y="280" width="270" height="130" as="geometry" />
        </mxCell>
        <mxCell id="yXOkGURGvn4hklytI6ma-13" value="" style="rounded=0;whiteSpace=wrap;html=1;fontSize=14;fillColor=#dae8fc;strokeColor=#6c8ebf;" vertex="1" parent="yXOkGURGvn4hklytI6ma-34">
          <mxGeometry width="270" height="130" as="geometry" />
        </mxCell>
        <mxCell id="yXOkGURGvn4hklytI6ma-14" value="Контроллер" style="text;html=1;align=center;verticalAlign=middle;resizable=0;points=[];autosize=1;strokeColor=none;fontSize=14;fontStyle=1" vertex="1" parent="yXOkGURGvn4hklytI6ma-34">
          <mxGeometry width="100" height="20" as="geometry" />
        </mxCell>
        <mxCell id="yXOkGURGvn4hklytI6ma-20" value="TableController" style="text;html=1;strokeColor=none;fillColor=none;align=left;verticalAlign=middle;whiteSpace=wrap;rounded=0;fontSize=14;" vertex="1" parent="yXOkGURGvn4hklytI6ma-34">
          <mxGeometry x="10" y="30" width="130" height="20" as="geometry" />
        </mxCell>
        <mxCell id="yXOkGURGvn4hklytI6ma-21" value="TableEditController" style="text;html=1;strokeColor=none;fillColor=none;align=left;verticalAlign=middle;whiteSpace=wrap;rounded=0;fontSize=14;" vertex="1" parent="yXOkGURGvn4hklytI6ma-34">
          <mxGeometry x="10" y="50" width="130" height="20" as="geometry" />
        </mxCell>
        <mxCell id="yXOkGURGvn4hklytI6ma-22" value="AdminController" style="text;html=1;strokeColor=none;fillColor=none;align=left;verticalAlign=middle;whiteSpace=wrap;rounded=0;fontSize=14;" vertex="1" parent="yXOkGURGvn4hklytI6ma-34">
          <mxGeometry x="10" y="70" width="130" height="20" as="geometry" />
        </mxCell>
        <mxCell id="yXOkGURGvn4hklytI6ma-35" style="edgeStyle=orthogonalEdgeStyle;rounded=0;orthogonalLoop=1;jettySize=auto;html=1;exitX=0;exitY=0.5;exitDx=0;exitDy=0;entryX=1;entryY=0.5;entryDx=0;entryDy=0;fontSize=14;" edge="1" parent="1" source="yXOkGURGvn4hklytI6ma-16" target="yXOkGURGvn4hklytI6ma-13">
          <mxGeometry relative="1" as="geometry" />
        </mxCell>
        <mxCell id="yXOkGURGvn4hklytI6ma-36" style="edgeStyle=orthogonalEdgeStyle;rounded=0;orthogonalLoop=1;jettySize=auto;html=1;exitX=0.5;exitY=0;exitDx=0;exitDy=0;entryX=0;entryY=0.5;entryDx=0;entryDy=0;fontSize=14;" edge="1" parent="1" source="yXOkGURGvn4hklytI6ma-13" target="yXOkGURGvn4hklytI6ma-2">
          <mxGeometry relative="1" as="geometry" />
        </mxCell>
        <mxCell id="yXOkGURGvn4hklytI6ma-37" style="edgeStyle=orthogonalEdgeStyle;rounded=0;orthogonalLoop=1;jettySize=auto;html=1;exitX=1;exitY=0.5;exitDx=0;exitDy=0;entryX=0.5;entryY=0;entryDx=0;entryDy=0;fontSize=14;" edge="1" parent="1" source="yXOkGURGvn4hklytI6ma-2" target="yXOkGURGvn4hklytI6ma-16">
          <mxGeometry relative="1" as="geometry" />
        </mxCell>
      </root>
    </mxGraphModel>
  </diagram>
</mxfile>
